<svg xmlns="http://www.w3.org/2000/svg" width="100" height="100"><g fill="#bfbfbf"><rect width="20" height="20"/><rect width="20" height="20" fill="#c0c0c0" x="20"/><rect width="20" height="20" fill="#c0c0c0" x="40"/><rect width="20" height="20" x="60"/><rect width="20" height="20" fill="#c3c3c3" x="80"/><rect width="20" height="20" fill="#c5c5c5" y="20"/><rect width="20" height="20" fill="#c7c7c7" x="20" y="20"/><rect width="20" height="20" fill="#c7c7c7" x="40" y="20"/><rect width="20" height="20" fill="#909090" x="60" y="20"/><rect width="20" height="20" fill="#787878" x="80" y="20"/><rect width="20" height="20" fill="#cacaca" y="40"/><rect width="20" height="20" fill="#cacaca" x="20" y="40"/><rect width="20" height="20" fill="#898989" x="40" y="40"/><rect width="20" height="20" fill="#5c5c5c" x="60" y="40"/><rect width="20" height="20" fill="#4b4b4b" x="80" y="40"/><rect width="20" height="20" fill="#0a0a0a" y="60"/><rect width="20" height="20" fill="#848484" x="20" y="60"/><rect width="20" height="20" fill="#717171" x="40" y="60"/><rect width="20" height="20" fill="#5d5d5d" x="60" y="60"/><rect width="20" height="20" fill="#434343" x="80" y="60"/><rect width="20" height="20" fill="#969696" y="80"/><rect width="20" height="20" fill="#252525" x="20" y="80"/><rect width="20" height="20" fill="#6e6e6e" x="40" y="80"/><rect width="20" height="20" fill="#474747" x="60" y="80"/><rect width="20" height="20" fill="#414141" x="80" y="80"/></g></svg>