<svg xmlns="http://www.w3.org/2000/svg" width="100" height="100"><g fill="#e2e2e2"><rect width="20" height="20"/><rect width="20" height="20" x="20"/><rect width="20" height="20" x="40"/><rect width="20" height="20" fill="#e4e4e4" x="60"/><rect width="20" height="20" fill="#323232" x="80"/><rect width="20" height="20" y="20"/><rect width="20" height="20" x="20" y="20"/><rect width="20" height="20" x="40" y="20"/><rect width="20" height="20" fill="#e7e7e7" x="60" y="20"/><rect width="20" height="20" fill="#373737" x="80" y="20"/><rect width="20" height="20" fill="#e0e0e0" y="40"/><rect width="20" height="20" fill="#e0e0e0" x="20" y="40"/><rect width="20" height="20" fill="#e1e1e1" x="40" y="40"/><rect width="20" height="20" fill="#e0e0e0" x="60" y="40"/><rect width="20" height="20" fill="#2a2a2a" x="80" y="40"/><rect width="20" height="20" fill="#e1e1e1" y="60"/><rect width="20" height="20" fill="#e1e1e1" x="20" y="60"/><rect width="20" height="20" fill="#e1e1e1" x="40" y="60"/><rect width="20" height="20" fill="#e1e1e1" x="60" y="60"/><rect width="20" height="20" fill="#e0e0e0" x="80" y="60"/><rect width="20" height="20" fill="#e1e1e1" y="80"/><rect width="20" height="20" fill="#e0e0e0" x="20" y="80"/><rect width="20" height="20" fill="#e1e1e1" x="40" y="80"/><rect width="20" height="20" fill="#e1e1e1" x="60" y="80"/><rect width="20" height="20" fill="#e1e1e1" x="80" y="80"/></g></svg>